<svg xmlns="http://www.w3.org/2000/svg" viewBox="0 0 533.916 201.035">
  <g fill="#fff">
    <path d="M31.686 22.828c7.496 0 21.01 3.066 21.01 13.06v6.815h-12.72v-3.18c0-3.18-4.77-4.542-8.29-4.542-9.995 0-17.15 7.61-17.15 18.06 0 11.81 8.746 17.83 18.06 17.83 9.88 0 17.148-7.836 17.148-7.836l6.02 9.995s-8.632 10.447-24.418 10.447C12.266 83.475 0 69.96 0 53.15 0 36.798 11.81 22.83 31.686 22.83zM92.79 22.828c17.717 0 31.8 12.607 31.8 30.324 0 17.83-14.083 30.323-31.8 30.323-17.604 0-31.686-12.493-31.686-30.323 0-17.718 14.083-30.324 31.686-30.324zm0 48.38c9.426 0 17.263-7.268 17.263-18.057 0-10.675-7.836-18.057-17.263-18.057-9.313 0-17.15 7.382-17.15 18.058 0 10.79 7.838 18.06 17.15 18.06zM132.997 38.5c-.568-1.704-1.477-2.044-3.18-2.044h-1.59V24.19h9.88c4.77 0 7.042 1.477 8.178 5.906l8.518 32.14c.795 3.067 1.136 6.134 1.136 6.134h.226s.454-3.066 1.363-6.133l10.675-37.82h12.72l10.79 37.82c.91 3.066 1.25 6.133 1.25 6.133h.227s.34-3.066 1.135-6.133l8.404-32.14c1.137-4.43 3.408-5.907 8.178-5.907h9.88v12.266h-1.59c-1.703 0-2.498.34-3.18 2.044l-13.855 43.61h-16.24l-9.88-33.048c-.91-3.066-1.364-6.246-1.364-6.246h-.228s-.568 3.18-1.477 6.246l-9.767 33.05h-16.354L132.997 38.5zM256.113 22.828c17.717 0 31.8 12.607 31.8 30.324 0 17.83-14.083 30.323-31.8 30.323-17.604 0-31.686-12.493-31.686-30.323 0-17.718 14.082-30.324 31.686-30.324zm0 48.38c9.426 0 17.262-7.268 17.262-18.057 0-10.675-7.836-18.057-17.262-18.057-9.313 0-17.15 7.382-17.15 18.058 0 10.79 7.837 18.06 17.15 18.06zM300.976 38.955c0-1.704-.91-2.5-2.5-2.5h-4.542V24.19h13.175c5.11 0 7.722 2.158 7.722 7.042v3.407c0 2.157-.228 3.633-.228 3.633h.228c2.612-8.29 9.54-14.878 18.398-14.878 1.25 0 2.612.227 2.612.227v14.196s-1.477-.227-3.52-.227c-6.134 0-13.176 3.522-15.788 12.153-.795 2.84-1.25 6.02-1.25 9.426v22.94h-14.31V38.955zM346.178 16.24c0-1.703-.908-2.497-2.498-2.497h-4.543V1.476h13.742c5.337 0 7.722 1.25 7.722 6.588v36.57h4.315c1.817 0 4.202-.34 5.452-2.158l11.81-18.285h16.013l-14.65 21.807c-2.498 3.634-4.315 4.543-4.315 4.543v.227s2.044.795 4.09 4.543l6.586 12.493c.908 1.704 2.044 2.158 4.77 2.158h3.86v12.153H387.86c-4.884 0-6.815-.795-9.086-4.997l-9.654-18.17c-1.136-2.045-3.52-2.16-5.338-2.16h-3.18v25.327h-14.424V16.24zM411.256 0h12.947l-8.518 24.872h-9.768L411.257 0zM438.855 38.955c0-1.704-.91-2.5-2.5-2.5h-4.542V24.19h13.742c5.338 0 7.61 2.385 7.61 7.723V67.46c0 1.59.908 2.498 2.498 2.498h4.543V82.11h-13.742c-5.338 0-7.61-2.27-7.61-7.723V38.955zm.682-37.48h12.492v13.29h-12.493V1.474zM472.36 38.955c0-1.704-.91-2.5-2.5-2.5h-4.542V24.19h13.288c5.11 0 7.61 2.385 7.61 6.474v1.704c0 1.25-.23 2.5-.23 2.5h.23c2.497-4.885 8.744-12.04 20.44-12.04 12.835 0 20.217 6.7 20.217 22.033v22.602c0 1.59.91 2.498 2.5 2.498h4.542v12.152h-13.742c-5.452 0-7.724-2.27-7.724-7.723V47.812c0-7.042-1.817-11.812-9.086-11.812-7.724 0-13.516 4.884-15.56 11.813-.794 2.385-1.135 4.997-1.135 7.723v26.576h-14.31V38.955zM27.796 142.855c0-1.31-.75-2.058-2.058-2.058H21.81v-5.52h6.547c3.93 0 5.706 1.685 5.706 5.24v2.15c0 1.87-.188 3.367-.188 3.367h.188c2.338-6.36 9.728-11.88 17.023-11.88 8.7 0 13.188 4.022 14.592 11.786h.187c2.525-6.36 9.354-11.785 17.304-11.785 11.41 0 15.62 6.64 15.62 18.24v22.354c0 1.4.748 2.057 2.058 2.057h3.93v5.52h-6.642c-4.022 0-5.706-1.685-5.706-5.707v-22.636c0-7.67-1.59-14.03-10.196-14.03-7.108 0-13.002 6.36-14.872 13.282-.655 2.058-.842 4.303-.842 6.828v22.262h-6.36v-28.342c0-7.108-1.03-14.03-9.915-14.03-7.67 0-13.376 6.642-15.34 13.844-.562 1.964-.75 4.115-.75 6.267v22.262h-6.36v-39.472zM135.268 134.157c13.75 0 24.88 10.476 24.88 24.413 0 14.217-11.13 24.88-24.787 24.88-13.75 0-24.88-10.663-24.88-24.88 0-13.937 11.13-24.413 24.788-24.413zm.093 43.588c10.01 0 18.24-8.232 18.24-19.175 0-10.664-8.23-18.614-18.24-18.614-10.1 0-18.332 7.95-18.332 18.614 0 10.944 8.23 19.175 18.333 19.175zM172.025 142.855c0-1.31-.75-2.058-2.058-2.058h-3.93v-5.52h6.548c3.93 0 5.706 1.685 5.706 5.24v2.15c0 1.87-.187 3.367-.187 3.367h.188c1.685-4.303 7.67-11.88 18.708-11.88 11.692 0 15.808 6.642 15.808 18.24v22.355c0 1.4.748 2.057 2.058 2.057h3.928v5.52h-6.64c-4.023 0-5.707-1.685-5.707-5.707v-22.54c0-7.39-1.123-13.937-10.195-13.937-8.044 0-14.966 5.52-17.117 13.282-.56 1.964-.748 4.115-.748 6.36v22.542h-6.36v-39.472zM229.454 140.61h-6.173v-5.33h6.268v-13.003h6.267v13.002H247.6v5.33h-11.785v23.946c0 11.037 7.015 12.44 10.57 12.44 1.31 0 2.15-.188 2.15-.188v5.706s-1.123.187-2.712.187c-5.425 0-16.37-1.776-16.37-17.49v-24.6zM260.226 142.855c0-1.31-.748-2.058-2.058-2.058h-3.93v-5.52h6.455c4.022 0 5.612 1.685 5.612 4.958 0 1.87-.094 3.18-.094 3.18h.188s3.742-9.26 16.182-9.26c12.627 0 20.484 10.103 20.484 24.694 0 14.87-8.886 24.6-21.046 24.6-11.505 0-15.434-8.887-15.434-8.887h-.187s.187 1.684.187 4.116v22.353h-6.36v-58.178zm21.14 34.983c8.323 0 15.15-7.015 15.15-18.987 0-11.504-6.08-18.894-14.87-18.894-7.858 0-15.248 5.612-15.248 18.988 0 9.448 5.146 18.894 14.967 18.894zM333.93 134.157c13.002 0 19.736 10.008 19.736 21.7 0 1.122-.188 3.18-.188 3.18h-36.104c.187 11.88 8.512 18.708 18.24 18.708 8.604 0 14.123-5.8 14.123-5.8l3.087 4.77s-6.828 6.735-17.49 6.735c-13.94 0-24.602-10.102-24.602-24.6 0-15.433 10.57-24.693 23.198-24.693zm13.188 19.83c-.374-9.728-6.36-14.5-13.282-14.5-7.764 0-14.592 5.052-16.182 14.5h29.464zM366.29 124.148c0-1.31-.747-2.058-2.057-2.058h-3.93v-5.52h6.643c4.022 0 5.705 1.685 5.705 5.706v52.475c0 1.403.75 2.06 2.06 2.06h3.928v5.518h-6.64c-4.024 0-5.707-1.684-5.707-5.706v-52.474zM389.206 124.148c0-1.31-.748-2.058-2.058-2.058h-3.93v-5.52h6.643c4.022 0 5.706 1.685 5.706 5.706v52.475c0 1.403.75 2.06 2.058 2.06h3.93v5.518h-6.642c-4.022 0-5.706-1.684-5.706-5.706v-52.474zM412.683 142.855c0-1.31-.748-2.058-2.058-2.058h-3.93v-5.52h6.642c4.022 0 5.706 1.685 5.706 5.707v33.767c0 1.403.748 2.06 2.058 2.06h3.93v5.518h-6.64c-4.024 0-5.707-1.684-5.707-5.706v-33.767zm-.188-26.283h6.174v8.044h-6.175v-8.044zM454.492 134.157c13.002 0 19.736 10.008 19.736 21.7 0 1.122-.188 3.18-.188 3.18h-36.104c.187 11.88 8.512 18.708 18.24 18.708 8.604 0 14.123-5.8 14.123-5.8l3.086 4.77s-6.828 6.735-17.49 6.735c-13.94 0-24.602-10.102-24.602-24.6 0-15.433 10.57-24.693 23.198-24.693zm13.19 19.83c-.375-9.728-6.36-14.5-13.283-14.5-7.765 0-14.593 5.052-16.183 14.5h29.464zM486.947 142.855c0-1.31-.748-2.058-2.058-2.058h-3.93v-5.52h6.548c3.928 0 5.705 1.59 5.705 5.333v3.18c0 1.965-.187 3.555-.187 3.555h.187c2.245-7.11 7.483-12.534 14.873-12.534 1.31 0 2.525.28 2.525.28v6.27s-1.122-.19-2.338-.19c-6.64 0-11.6 5.24-13.656 12.16-.935 2.994-1.31 6.174-1.31 9.167v19.83h-6.36v-39.472z"/>
  </g>
</svg>