<?xml version="1.0" encoding="utf-8"?>
<!-- Generator: Adobe Illustrator 19.0.0, SVG Export Plug-In . SVG Version: 6.00 Build 0)  -->
<svg version="1.1" id="Calque_1" xmlns="http://www.w3.org/2000/svg" xmlns:xlink="http://www.w3.org/1999/xlink" x="0px" y="0px"
	 viewBox="0 0 533.916 201.035" enable-background="new 0 0 533.916 201.035" xml:space="preserve">
<g>
	<g>
		<path fill="#35A8E0" d="M31.686,22.828c7.496,0,21.011,3.066,21.011,13.061v6.814h-12.72v-3.18c0-3.18-4.77-4.542-8.291-4.542
			c-9.995,0-17.149,7.609-17.149,18.058c0,11.811,8.745,17.831,18.058,17.831c9.881,0,17.149-7.836,17.149-7.836l6.02,9.995
			c0,0-8.632,10.448-24.418,10.448C12.266,83.475,0,69.959,0,53.151C0,36.797,11.811,22.828,31.686,22.828z"/>
		<path fill="#35A8E0" d="M92.79,22.828c17.717,0,31.8,12.607,31.8,30.324c0,17.831-14.083,30.323-31.8,30.323
			c-17.604,0-31.686-12.493-31.686-30.323C61.104,35.434,75.187,22.828,92.79,22.828z M92.79,71.209
			c9.426,0,17.263-7.269,17.263-18.058c0-10.676-7.836-18.058-17.263-18.058c-9.313,0-17.149,7.382-17.149,18.058
			C75.641,63.94,83.478,71.209,92.79,71.209z"/>
		<path fill="#35A8E0" d="M132.997,38.5c-0.568-1.704-1.477-2.044-3.18-2.044h-1.59V24.19h9.881c4.77,0,7.041,1.477,8.177,5.906
			l8.518,32.141c0.795,3.066,1.136,6.133,1.136,6.133h0.227c0,0,0.454-3.066,1.363-6.133l10.676-37.819h12.72l10.79,37.819
			c0.909,3.066,1.249,6.133,1.249,6.133h0.228c0,0,0.34-3.066,1.135-6.133l8.404-32.141c1.136-4.429,3.407-5.906,8.177-5.906h9.881
			v12.266h-1.59c-1.704,0-2.499,0.341-3.18,2.044l-13.856,43.611h-16.24l-9.881-33.049c-0.909-3.066-1.363-6.246-1.363-6.246h-0.227
			c0,0-0.568,3.18-1.477,6.246l-9.767,33.049h-16.354L132.997,38.5z"/>
		<path fill="#35A8E0" d="M256.113,22.828c17.717,0,31.799,12.607,31.799,30.324c0,17.831-14.082,30.323-31.799,30.323
			c-17.604,0-31.686-12.493-31.686-30.323C224.426,35.434,238.509,22.828,256.113,22.828z M256.113,71.209
			c9.426,0,17.262-7.269,17.262-18.058c0-10.676-7.836-18.058-17.262-18.058c-9.313,0-17.149,7.382-17.149,18.058
			C238.963,63.94,246.8,71.209,256.113,71.209z"/>
		<path fill="#35A8E0" d="M300.976,38.955c0-1.704-0.909-2.499-2.499-2.499h-4.543V24.19h13.175c5.11,0,7.723,2.158,7.723,7.042
			v3.407c0,2.158-0.228,3.634-0.228,3.634h0.228c2.612-8.291,9.54-14.878,18.398-14.878c1.249,0,2.612,0.227,2.612,0.227v14.196
			c0,0-1.477-0.227-3.521-0.227c-6.133,0-13.175,3.521-15.787,12.152c-0.795,2.839-1.249,6.019-1.249,9.426v22.941h-14.31V38.955z"
			/>
		<path fill="#35A8E0" d="M346.178,16.241c0-1.704-0.908-2.498-2.498-2.498h-4.543V1.476h13.742c5.338,0,7.723,1.25,7.723,6.588
			v36.57h4.315c1.817,0,4.202-0.341,5.452-2.158l11.811-18.285h16.013l-14.65,21.806c-2.498,3.634-4.315,4.543-4.315,4.543v0.227
			c0,0,2.044,0.795,4.089,4.543l6.587,12.493c0.908,1.704,2.044,2.158,4.77,2.158h3.861v12.152h-10.676
			c-4.883,0-6.814-0.795-9.085-4.997l-9.654-18.171c-1.136-2.044-3.521-2.158-5.338-2.158h-3.18v25.326h-14.424V16.241z"/>
		<path fill="#35A8E0" d="M411.256,0h12.947l-8.518,24.872h-9.768L411.256,0z"/>
		<path fill="#35A8E0" d="M438.855,38.955c0-1.704-0.909-2.499-2.499-2.499h-4.543V24.19h13.742c5.338,0,7.609,2.385,7.609,7.723
			v35.547c0,1.59,0.909,2.498,2.499,2.498h4.543v12.152h-13.742c-5.338,0-7.609-2.271-7.609-7.723V38.955z M439.537,1.476h12.492
			v13.288h-12.492V1.476z"/>
		<path fill="#35A8E0" d="M472.36,38.955c0-1.704-0.909-2.499-2.499-2.499h-4.543V24.19h13.288c5.11,0,7.609,2.385,7.609,6.474
			v1.704c0,1.249-0.228,2.499-0.228,2.499h0.228c2.498-4.884,8.745-12.039,20.442-12.039c12.834,0,20.216,6.701,20.216,22.033
			v22.601c0,1.59,0.909,2.498,2.499,2.498h4.543v12.152h-13.742c-5.452,0-7.724-2.271-7.724-7.723V47.813
			c0-7.042-1.816-11.812-9.085-11.812c-7.724,0-13.516,4.883-15.559,11.812c-0.795,2.385-1.136,4.997-1.136,7.723v26.576h-14.31
			V38.955z"/>
		<path fill="#35A8E0" d="M27.796,142.855c0-1.309-0.749-2.058-2.058-2.058H21.81v-5.519h6.547c3.929,0,5.706,1.684,5.706,5.238
			v2.151c0,1.87-0.188,3.367-0.188,3.367h0.188c2.338-6.36,9.728-11.879,17.023-11.879c8.699,0,13.188,4.021,14.592,11.785h0.187
			c2.525-6.36,9.354-11.785,17.304-11.785c11.412,0,15.621,6.641,15.621,18.239v22.355c0,1.402,0.748,2.058,2.058,2.058h3.929v5.519
			h-6.641c-4.022,0-5.706-1.684-5.706-5.706v-22.636c0-7.67-1.59-14.03-10.196-14.03c-7.108,0-13.002,6.36-14.872,13.282
			c-0.655,2.058-0.842,4.303-0.842,6.828v22.262h-6.36v-28.342c0-7.108-1.029-14.03-9.915-14.03c-7.67,0-13.376,6.642-15.34,13.844
			c-0.562,1.964-0.749,4.115-0.749,6.267v22.262h-6.36V142.855z"/>
		<path fill="#35A8E0" d="M135.268,134.157c13.75,0,24.88,10.476,24.88,24.413c0,14.217-11.131,24.88-24.787,24.88
			c-13.75,0-24.88-10.663-24.88-24.88C110.48,144.633,121.611,134.157,135.268,134.157z M135.361,177.745
			c10.008,0,18.24-8.232,18.24-19.175c0-10.664-8.231-18.614-18.24-18.614c-10.102,0-18.333,7.95-18.333,18.614
			C117.028,169.514,125.259,177.745,135.361,177.745z"/>
		<path fill="#35A8E0" d="M172.025,142.855c0-1.309-0.749-2.058-2.058-2.058h-3.929v-5.519h6.547c3.929,0,5.706,1.684,5.706,5.238
			v2.151c0,1.87-0.188,3.367-0.188,3.367h0.188c1.684-4.303,7.67-11.879,18.707-11.879c11.692,0,15.808,6.641,15.808,18.239v22.355
			c0,1.402,0.748,2.058,2.058,2.058h3.928v5.519h-6.641c-4.022,0-5.706-1.684-5.706-5.706V154.08c0-7.39-1.123-13.937-10.195-13.937
			c-8.044,0-14.966,5.519-17.117,13.282c-0.561,1.964-0.748,4.115-0.748,6.36v22.542h-6.36V142.855z"/>
		<path fill="#35A8E0" d="M229.454,140.611h-6.173v-5.332h6.267v-13.002h6.267v13.002H247.6v5.332h-11.785v23.945
			c0,11.037,7.015,12.439,10.569,12.439c1.31,0,2.151-0.187,2.151-0.187v5.706c0,0-1.123,0.187-2.712,0.187
			c-5.425,0-16.369-1.777-16.369-17.491V140.611z"/>
		<path fill="#35A8E0" d="M260.226,142.855c0-1.309-0.748-2.058-2.058-2.058h-3.929v-5.519h6.454c4.022,0,5.612,1.684,5.612,4.957
			c0,1.871-0.094,3.181-0.094,3.181h0.187c0,0,3.742-9.26,16.182-9.26c12.627,0,20.484,10.102,20.484,24.693
			c0,14.872-8.886,24.6-21.046,24.6c-11.505,0-15.434-8.886-15.434-8.886h-0.187c0,0,0.187,1.684,0.187,4.116v22.354h-6.36V142.855z
			 M281.365,177.838c8.324,0,15.152-7.015,15.152-18.987c0-11.505-6.08-18.895-14.872-18.895c-7.857,0-15.247,5.612-15.247,18.988
			C266.399,168.392,271.544,177.838,281.365,177.838z"/>
		<path fill="#35A8E0" d="M333.93,134.157c13.002,0,19.736,10.008,19.736,21.7c0,1.122-0.188,3.18-0.188,3.18h-36.104
			c0.187,11.88,8.512,18.708,18.239,18.708c8.605,0,14.124-5.8,14.124-5.8l3.087,4.771c0,0-6.828,6.734-17.491,6.734
			c-13.938,0-24.601-10.102-24.601-24.6C310.732,143.417,321.303,134.157,333.93,134.157z M347.118,153.986
			c-0.374-9.727-6.36-14.498-13.282-14.498c-7.764,0-14.592,5.051-16.182,14.498H347.118z"/>
		<path fill="#35A8E0" d="M366.291,124.148c0-1.31-0.748-2.058-2.058-2.058h-3.929v-5.519h6.642c4.022,0,5.705,1.684,5.705,5.705
			v52.475c0,1.402,0.749,2.058,2.059,2.058h3.928v5.519h-6.641c-4.023,0-5.706-1.684-5.706-5.706V124.148z"/>
		<path fill="#35A8E0" d="M389.206,124.148c0-1.31-0.748-2.058-2.058-2.058h-3.929v-5.519h6.642c4.021,0,5.705,1.684,5.705,5.705
			v52.475c0,1.402,0.749,2.058,2.058,2.058h3.929v5.519h-6.641c-4.022,0-5.706-1.684-5.706-5.706V124.148z"/>
		<path fill="#35A8E0" d="M412.683,142.855c0-1.309-0.748-2.058-2.058-2.058h-3.929v-5.519h6.641c4.022,0,5.706,1.684,5.706,5.706
			v33.767c0,1.402,0.748,2.058,2.058,2.058h3.929v5.519h-6.641c-4.023,0-5.706-1.684-5.706-5.706V142.855z M412.495,116.572h6.174
			v8.044h-6.174V116.572z"/>
		<path fill="#35A8E0" d="M454.492,134.157c13.002,0,19.736,10.008,19.736,21.7c0,1.122-0.188,3.18-0.188,3.18h-36.104
			c0.187,11.88,8.512,18.708,18.239,18.708c8.605,0,14.124-5.8,14.124-5.8l3.087,4.771c0,0-6.828,6.734-17.491,6.734
			c-13.938,0-24.601-10.102-24.601-24.6C431.295,143.417,441.865,134.157,454.492,134.157z M467.681,153.986
			c-0.374-9.727-6.36-14.498-13.282-14.498c-7.764,0-14.592,5.051-16.182,14.498H467.681z"/>
		<path fill="#35A8E0" d="M486.947,142.855c0-1.309-0.748-2.058-2.058-2.058h-3.929v-5.519h6.548c3.928,0,5.705,1.59,5.705,5.332
			v3.18c0,1.965-0.187,3.555-0.187,3.555h0.187c2.245-7.109,7.483-12.534,14.873-12.534c1.309,0,2.525,0.28,2.525,0.28v6.268
			c0,0-1.123-0.188-2.339-0.188c-6.641,0-11.599,5.238-13.656,12.16c-0.935,2.993-1.31,6.173-1.31,9.166v19.83h-6.36V142.855z"/>
	</g>
</g>
<g>
</g>
<g>
</g>
<g>
</g>
<g>
</g>
<g>
</g>
<g>
</g>
<g>
</g>
<g>
</g>
<g>
</g>
<g>
</g>
<g>
</g>
<g>
</g>
<g>
</g>
<g>
</g>
<g>
</g>
</svg>
